<?xml version="1.0" standalone="no"?>
<!DOCTYPE svg PUBLIC "-//W3C//DTD SVG 20010904//EN"
 "http://www.w3.org/TR/2001/REC-SVG-20010904/DTD/svg10.dtd">
<svg version="1.0" xmlns="http://www.w3.org/2000/svg"
 width="1012.000000pt" height="1012.000000pt" viewBox="0 0 1012.000000 1012.000000"
 preserveAspectRatio="xMidYMid meet">
<metadata>
Created by potrace 1.14, written by Peter Selinger 2001-2017
</metadata>
<g transform="translate(0.000000,1012.000000) scale(0.100000,-0.100000)"
fill="#000000" stroke="none">
<path d="M440 8140 l0 -1540 1540 0 1540 0 0 1540 0 1540 -1540 0 -1540 0 0
-1540z m2640 0 l0 -1100 -1100 0 -1100 0 0 1100 0 1100 1100 0 1100 0 0 -1100z"/>
<path d="M1320 8140 l0 -660 660 0 660 0 0 660 0 660 -660 0 -660 0 0 -660z"/>
<path d="M4840 9020 l0 -660 440 0 440 0 0 -220 0 -220 -880 0 -880 0 0 -880
0 -880 -440 0 -440 0 0 -220 0 -220 -220 0 -220 0 0 -220 0 -220 -440 0 -440
0 0 220 0 220 220 0 220 0 0 220 0 220 -220 0 -220 0 0 -220 0 -220 -220 0
-220 0 0 220 0 220 -440 0 -440 0 0 -220 0 -220 220 0 220 0 0 -220 0 -220
-220 0 -220 0 0 -440 0 -440 440 0 440 0 0 -220 0 -220 220 0 220 0 0 440 0
440 440 0 440 0 0 -220 0 -220 -220 0 -220 0 0 -220 0 -220 660 0 660 0 0 220
0 220 220 0 220 0 0 -660 0 -660 220 0 220 0 0 220 0 220 220 0 220 0 0 -440
0 -440 -220 0 -220 0 0 -220 0 -220 -220 0 -220 0 0 -220 0 -220 220 0 220 0
0 -220 0 -220 -220 0 -220 0 0 -440 0 -440 220 0 220 0 0 220 0 220 220 0 220
0 0 -220 0 -220 220 0 220 0 0 220 0 220 440 0 440 0 0 -220 0 -220 220 0 220
0 0 220 0 220 -220 0 -220 0 0 220 0 220 440 0 440 0 0 -440 0 -440 220 0 220
0 0 880 0 880 -220 0 -220 0 0 880 0 880 220 0 220 0 0 -440 0 -440 440 0 440
0 0 -440 0 -440 220 0 220 0 0 -220 0 -220 -440 0 -440 0 0 -440 0 -440 220 0
220 0 0 -220 0 -220 220 0 220 0 0 220 0 220 -220 0 -220 0 0 220 0 220 220 0
220 0 0 220 0 220 220 0 220 0 0 -440 0 -440 220 0 220 0 0 880 0 880 -440 0
-440 0 0 220 0 220 220 0 220 0 0 220 0 220 -220 0 -220 0 0 440 0 440 220 0
220 0 0 220 0 220 -220 0 -220 0 0 220 0 220 -220 0 -220 0 0 220 0 220 440 0
440 0 0 220 0 220 -440 0 -440 0 0 -220 0 -220 -220 0 -220 0 0 220 0 220
-660 0 -660 0 0 -220 0 -220 -220 0 -220 0 0 220 0 220 -660 0 -660 0 0 -220
0 -220 -440 0 -440 0 0 220 0 220 220 0 220 0 0 440 0 440 220 0 220 0 0 -220
0 -220 220 0 220 0 0 440 0 440 440 0 440 0 0 440 0 440 -220 0 -220 0 0 220
0 220 220 0 220 0 0 440 0 440 -220 0 -220 0 0 -440 0 -440 -220 0 -220 0 0
440 0 440 -220 0 -220 0 0 -660z m-880 -3520 l0 -220 440 0 440 0 0 220 0 220
220 0 220 0 0 -220 0 -220 -220 0 -220 0 0 -220 0 -220 440 0 440 0 0 440 0
440 220 0 220 0 0 -220 0 -220 220 0 220 0 0 220 0 220 220 0 220 0 0 -220 0
-220 -220 0 -220 0 0 -220 0 -220 -440 0 -440 0 0 -220 0 -220 220 0 220 0 0
-440 0 -440 220 0 220 0 0 -440 0 -440 -440 0 -440 0 0 -220 0 -220 220 0 220
0 0 -440 0 -440 -220 0 -220 0 0 220 0 220 -220 0 -220 0 0 -440 0 -440 -220
0 -220 0 0 880 0 880 220 0 220 0 0 220 0 220 440 0 440 0 0 220 0 220 -660 0
-660 0 0 220 0 220 -220 0 -220 0 0 220 0 220 220 0 220 0 0 220 0 220 -660 0
-660 0 0 -220 0 -220 -220 0 -220 0 0 220 0 220 -220 0 -220 0 0 220 0 220
220 0 220 0 0 220 0 220 440 0 440 0 0 -220z m3960 0 l0 -220 220 0 220 0 0
-220 0 -220 220 0 220 0 0 -220 0 -220 -220 0 -220 0 0 -440 0 -440 220 0 220
0 0 -220 0 -220 -220 0 -220 0 0 220 0 220 -220 0 -220 0 0 220 0 220 -220 0
-220 0 0 220 0 220 220 0 220 0 0 440 0 440 -220 0 -220 0 0 220 0 220 220 0
220 0 0 -220z m-6160 -440 l0 -220 -440 0 -440 0 0 220 0 220 440 0 440 0 0
-220z"/>
<path d="M3080 5060 l0 -220 220 0 220 0 0 220 0 220 -220 0 -220 0 0 -220z"/>
<path d="M5280 4180 l0 -220 220 0 220 0 0 220 0 220 -220 0 -220 0 0 -220z"/>
<path d="M6600 8140 l0 -1540 1540 0 1540 0 0 1540 0 1540 -1540 0 -1540 0 0
-1540z m2640 0 l0 -1100 -1100 0 -1100 0 0 1100 0 1100 1100 0 1100 0 0 -1100z"/>
<path d="M7480 8140 l0 -660 660 0 660 0 0 660 0 660 -660 0 -660 0 0 -660z"/>
<path d="M3960 8800 l0 -440 220 0 220 0 0 440 0 440 -220 0 -220 0 0 -440z"/>
<path d="M5720 6820 l0 -220 220 0 220 0 0 220 0 220 -220 0 -220 0 0 -220z"/>
<path d="M440 1980 l0 -1540 1540 0 1540 0 0 1540 0 1540 -1540 0 -1540 0 0
-1540z m2640 0 l0 -1100 -1100 0 -1100 0 0 1100 0 1100 1100 0 1100 0 0 -1100z"/>
<path d="M1320 1980 l0 -660 660 0 660 0 0 660 0 660 -660 0 -660 0 0 -660z"/>
</g>
</svg>
